<svg version="1.1" id="Layer_1" xmlns="http://www.w3.org/2000/svg" xmlns:xlink="http://www.w3.org/1999/xlink" x="0px" y="0px"
	 width="100%" viewBox="0 0 500 500" enable-background="new 0 0 500 500" xml:space="preserve">
<path fill="#000000" opacity="1.000000" stroke="none" 
	d="
M456.000000,501.000000 
	C304.000031,501.000000 152.500076,501.000000 1.000081,501.000000 
	C1.000054,334.333405 1.000054,167.666824 1.000027,1.000171 
	C167.666550,1.000114 334.333099,1.000114 500.999756,1.000057 
	C500.999817,167.666519 500.999817,334.333038 500.999908,500.999756 
	C486.166656,501.000000 471.333344,501.000000 456.000000,501.000000 
M146.453033,417.016754 
	C146.311203,416.976776 146.169373,416.936829 145.934296,417.001892 
	C145.934296,417.001892 146.048157,417.190399 146.048157,417.190399 
	C146.048157,417.190399 146.265488,417.049377 146.453033,417.016754 
M370.553680,406.926331 
	C370.713135,406.985565 370.872589,407.044830 371.193146,406.914093 
	C371.040955,406.899414 370.888733,406.884735 370.553680,406.926331 
M116.032585,120.136627 
	C116.032585,120.136627 116.094482,119.972710 115.896500,119.374321 
	C115.267967,118.550156 114.639435,117.725998 113.953407,116.851074 
	C113.953407,116.851074 113.900566,117.024551 114.093224,117.623436 
	C114.720390,118.446465 115.347557,119.269493 116.032585,120.136627 
M119.993866,122.883400 
	C119.993866,122.883400 119.913429,123.054543 120.017471,123.401878 
	C120.244728,123.711113 120.471985,124.020348 120.699242,124.329582 
	C120.819061,124.233879 120.938889,124.138176 121.058716,124.042473 
	C120.724930,123.665367 120.391151,123.288261 119.993866,122.883400 
M242.239120,58.240814 
	C242.239120,67.087334 242.239120,75.933846 242.239120,84.780365 
	C242.348526,84.777931 242.457932,84.775505 242.567337,84.773071 
	C242.567337,75.870110 242.567337,66.967140 242.239120,58.240814 
M353.619476,386.828522 
	C353.567780,386.970215 353.516113,387.111908 353.464447,387.253601 
	C353.541779,387.152222 353.619141,387.050812 353.619476,386.828522 
M153.416718,416.798859 
	C153.594452,416.836945 153.772186,416.875031 153.949905,416.913147 
	C153.789398,416.818878 153.628891,416.724609 153.416718,416.798859 
M365.081238,387.253082 
	C365.009369,387.408905 364.937500,387.564758 364.865662,387.720612 
	C364.984253,387.597382 365.102844,387.474152 365.081238,387.253082 
M135.683716,409.268219 
	C135.683716,409.268219 136.026871,409.210938 136.026871,409.210938 
	C136.026871,409.210938 135.686340,409.126068 135.683716,409.268219 
M130.936905,135.356262 
	C130.936905,135.356262 130.879883,135.026001 130.879883,135.026001 
	C130.879883,135.026001 130.799713,135.347107 130.936905,135.356262 
M347.695648,408.223907 
	C347.695648,408.223907 347.950104,408.180420 347.950104,408.180420 
	C347.950104,408.180420 347.699066,408.117798 347.695648,408.223907 
M160.419724,392.534302 
	C160.419724,392.534302 160.442245,392.479767 160.419724,392.534302 
M351.955811,410.502441 
	C351.955811,410.502441 351.996338,410.455597 351.955811,410.502441 
M150.999802,418.528931 
	C150.999802,418.528931 150.984222,418.475861 150.999802,418.528931 
M366.506927,410.028107 
	C366.506927,410.028107 366.473267,409.996643 366.506927,410.028107 
M132.455322,405.988953 
	C132.455322,405.988953 132.522064,405.967621 132.455322,405.988953 
M143.008011,404.522095 
	C143.008011,404.522095 142.997391,404.482086 143.008011,404.522095 
M343.531830,403.000122 
	C343.531830,403.000122 343.481140,403.014893 343.531830,403.000122 
M377.494171,400.974060 
	C377.494171,400.974060 377.525635,401.004059 377.494171,400.974060 
M111.485596,115.013260 
	C111.485596,115.013260 111.517624,115.005424 111.485596,115.013260 
M269.546051,421.010986 
	C269.546051,421.010986 269.480347,421.031952 269.546051,421.010986 
M355.535339,374.961182 
	C355.535339,374.961182 355.531158,375.002655 355.535339,374.961182 
M351.559540,369.951385 
	C351.559540,369.951385 351.555206,370.016449 351.559540,369.951385 
M126.509903,130.019226 
	C126.509903,130.019226 126.484741,129.993378 126.509903,130.019226 
M124.400185,129.074280 
	C124.400185,129.074280 124.599037,129.023911 124.599037,129.023911 
	C124.599037,129.023911 124.404572,128.957932 124.400185,129.074280 
M364.488312,410.465881 
	C364.488312,410.465881 364.507446,410.518555 364.488312,410.465881 
M135.514633,416.524780 
	C135.514633,416.524780 135.505020,416.485229 135.514633,416.524780 
M277.460602,422.508362 
	C277.460602,422.508362 277.517883,422.485748 277.460602,422.508362 
M374.474487,398.515747 
	C374.474487,398.515747 374.516785,398.504395 374.474487,398.515747 
M350.479523,391.515076 
	C350.479523,391.515076 350.514709,391.507721 350.479523,391.515076 
M351.478638,389.515778 
	C351.478638,389.515778 351.515381,389.506714 351.478638,389.515778 
M128.480515,132.515198 
	C128.480515,132.515198 128.515289,132.508438 128.480515,132.515198 
M111.457932,112.506798 
	C111.457932,112.506798 111.518829,112.481148 111.457932,112.506798 
z"/>
<path fill="#151515" opacity="1.000000" stroke="none" 
	d="
M242.403229,58.152496 
	C242.567337,66.967140 242.567337,75.870110 242.567337,84.773071 
	C242.457932,84.775505 242.348526,84.777931 242.239120,84.780365 
	C242.239120,75.933846 242.239120,67.087334 242.403229,58.152496 
z"/>
<path fill="#050505" opacity="1.000000" stroke="none" 
	d="
M353.657959,386.888977 
	C353.619141,387.050812 353.541779,387.152222 353.464447,387.253601 
	C353.516113,387.111908 353.567780,386.970215 353.657959,386.888977 
z"/>
<path fill="#070707" opacity="1.000000" stroke="none" 
	d="
M153.442551,416.714600 
	C153.628891,416.724609 153.789398,416.818878 153.949905,416.913147 
	C153.772186,416.875031 153.594452,416.836945 153.442551,416.714600 
z"/>
<path fill="#050505" opacity="1.000000" stroke="none" 
	d="
M365.151337,387.302002 
	C365.102844,387.474152 364.984253,387.597382 364.865662,387.720581 
	C364.937500,387.564758 365.009369,387.408905 365.151337,387.302002 
z"/>
<path fill="#070707" opacity="1.000000" stroke="none" 
	d="
M120.057365,122.911156 
	C120.391151,123.288261 120.724930,123.665367 121.058716,124.042473 
	C120.938889,124.138176 120.819061,124.233879 120.699242,124.329582 
	C120.471985,124.020348 120.244728,123.711113 119.999596,123.190521 
	C119.981720,122.979156 120.057365,122.911156 120.057365,122.911156 
z"/>
<path fill="#070707" opacity="1.000000" stroke="none" 
	d="
M114.010902,116.901833 
	C114.639435,117.725998 115.267967,118.550156 115.967743,119.705666 
	C116.038994,120.037010 115.974716,120.092522 115.974716,120.092522 
	C115.347557,119.269493 114.720390,118.446465 114.021774,117.290878 
	C113.950317,116.958321 114.010902,116.901833 114.010902,116.901833 
z"/>
<path fill="#070707" opacity="1.000000" stroke="none" 
	d="
M135.685028,409.197144 
	C135.686340,409.126068 136.026871,409.210938 136.026871,409.210938 
	C136.026871,409.210938 135.683716,409.268219 135.685028,409.197144 
z"/>
<path fill="#070707" opacity="1.000000" stroke="none" 
	d="
M130.868317,135.351685 
	C130.799713,135.347107 130.879883,135.026001 130.879883,135.026001 
	C130.879883,135.026001 130.936905,135.356262 130.868317,135.351685 
z"/>
<path fill="#050505" opacity="1.000000" stroke="none" 
	d="
M347.697357,408.170837 
	C347.699066,408.117798 347.950104,408.180420 347.950104,408.180420 
	C347.950104,408.180420 347.695648,408.223907 347.697357,408.170837 
z"/>
<path fill="#070707" opacity="1.000000" stroke="none" 
	d="
M160.430984,392.507019 
	C160.442245,392.479767 160.419724,392.534302 160.430984,392.507019 
z"/>
<path fill="#050505" opacity="1.000000" stroke="none" 
	d="
M351.976074,410.479004 
	C351.996338,410.455597 351.955811,410.502441 351.976074,410.479004 
z"/>
<path fill="#070707" opacity="1.000000" stroke="none" 
	d="
M150.992004,418.502380 
	C150.984222,418.475861 150.999802,418.528931 150.992004,418.502380 
z"/>
<path fill="#050505" opacity="1.000000" stroke="none" 
	d="
M366.490112,410.012390 
	C366.473267,409.996643 366.506927,410.028107 366.490112,410.012390 
z"/>
<path fill="#050505" opacity="1.000000" stroke="none" 
	d="
M371.032043,407.104095 
	C370.872589,407.044830 370.713135,406.985565 370.725372,406.948608 
	C370.897064,406.970917 371.032043,407.104095 371.032043,407.104095 
z"/>
<path fill="#050505" opacity="1.000000" stroke="none" 
	d="
M370.816803,406.920471 
	C370.888733,406.884735 371.040955,406.899414 371.112610,407.009094 
	C371.032043,407.104095 370.897064,406.970917 370.816803,406.920471 
z"/>
<path fill="#070707" opacity="1.000000" stroke="none" 
	d="
M132.488693,405.978271 
	C132.522064,405.967621 132.455322,405.988953 132.488693,405.978271 
z"/>
<path fill="#070707" opacity="1.000000" stroke="none" 
	d="
M143.002701,404.502075 
	C142.997391,404.482086 143.008011,404.522095 143.002701,404.502075 
z"/>
<path fill="#050505" opacity="1.000000" stroke="none" 
	d="
M343.506470,403.007507 
	C343.481140,403.014893 343.531830,403.000122 343.506470,403.007507 
z"/>
<path fill="#050505" opacity="1.000000" stroke="none" 
	d="
M377.509888,400.989075 
	C377.525635,401.004059 377.494171,400.974060 377.509888,400.989075 
z"/>
<path fill="#070707" opacity="1.000000" stroke="none" 
	d="
M111.501610,115.009338 
	C111.517624,115.005424 111.485596,115.013260 111.501610,115.009338 
z"/>
<path fill="#070707" opacity="1.000000" stroke="none" 
	d="
M269.513184,421.021484 
	C269.480347,421.031952 269.546051,421.010986 269.513184,421.021484 
z"/>
<path fill="#050505" opacity="1.000000" stroke="none" 
	d="
M355.533264,374.981934 
	C355.531158,375.002655 355.535339,374.961182 355.533264,374.981934 
z"/>
<path fill="#050505" opacity="1.000000" stroke="none" 
	d="
M351.557373,369.983917 
	C351.555206,370.016449 351.559540,369.951385 351.557373,369.983917 
z"/>
<path fill="#070707" opacity="1.000000" stroke="none" 
	d="
M146.027542,416.896851 
	C146.169373,416.936829 146.311203,416.976776 146.294769,417.002747 
	C146.136490,416.988739 146.027542,416.896851 146.027542,416.896851 
z"/>
<path fill="#070707" opacity="1.000000" stroke="none" 
	d="
M126.497322,130.006302 
	C126.484741,129.993378 126.509903,130.019226 126.497322,130.006302 
z"/>
<path fill="#070707" opacity="1.000000" stroke="none" 
	d="
M124.402374,129.016113 
	C124.404572,128.957932 124.599037,129.023911 124.599037,129.023911 
	C124.599037,129.023911 124.400185,129.074280 124.402374,129.016113 
z"/>
<path fill="#050505" opacity="1.000000" stroke="none" 
	d="
M364.497864,410.492218 
	C364.507446,410.518555 364.488312,410.465881 364.497864,410.492218 
z"/>
<path fill="#070707" opacity="1.000000" stroke="none" 
	d="
M135.509827,416.505005 
	C135.505020,416.485229 135.514633,416.524780 135.509827,416.505005 
z"/>
<path fill="#070707" opacity="1.000000" stroke="none" 
	d="
M277.489258,422.497070 
	C277.517883,422.485748 277.460602,422.508362 277.489258,422.497070 
z"/>
<path fill="#070707" opacity="1.000000" stroke="none" 
	d="
M146.200989,417.019043 
	C146.265488,417.049377 146.048157,417.190399 146.048157,417.190399 
	C146.048157,417.190399 145.934296,417.001892 145.980927,416.949371 
	C146.027542,416.896851 146.136490,416.988739 146.200989,417.019043 
z"/>
<path fill="#050505" opacity="1.000000" stroke="none" 
	d="
M374.495636,398.510071 
	C374.516785,398.504395 374.474487,398.515747 374.495636,398.510071 
z"/>
<path fill="#050505" opacity="1.000000" stroke="none" 
	d="
M350.497131,391.511414 
	C350.514709,391.507721 350.479523,391.515076 350.497131,391.511414 
z"/>
<path fill="#050505" opacity="1.000000" stroke="none" 
	d="
M351.497009,389.511230 
	C351.515381,389.506714 351.478638,389.515778 351.497009,389.511230 
z"/>
<path fill="#070707" opacity="1.000000" stroke="none" 
	d="
M128.497894,132.511810 
	C128.515289,132.508438 128.480515,132.515198 128.497894,132.511810 
z"/>
<path fill="#070707" opacity="1.000000" stroke="none" 
	d="
M119.947571,123.016846 
	C119.913429,123.054543 119.993866,122.883400 120.025620,122.897278 
	C120.057365,122.911156 119.981720,122.979156 119.947571,123.016846 
z"/>
<path fill="#070707" opacity="1.000000" stroke="none" 
	d="
M116.066742,120.004860 
	C116.094482,119.972710 116.032585,120.136627 116.003647,120.114578 
	C115.974716,120.092522 116.038994,120.037010 116.066742,120.004860 
z"/>
<path fill="#070707" opacity="1.000000" stroke="none" 
	d="
M113.925446,116.991440 
	C113.900566,117.024551 113.953407,116.851074 113.982155,116.876450 
	C114.010902,116.901833 113.950317,116.958321 113.925446,116.991440 
z"/>
<path fill="#070707" opacity="1.000000" stroke="none" 
	d="
M111.488380,112.493973 
	C111.518829,112.481148 111.457932,112.506798 111.488380,112.493973 
z"/>
</svg>